<mxfile host="app.diagrams.net" modified="2024-04-23T02:35:32.044Z" agent="Mozilla/5.0 (Windows NT 10.0; Win64; x64) AppleWebKit/537.36 (KHTML, like Gecko) Chrome/123.0.0.0 Safari/537.36" version="24.2.7" etag="qwVfGhm3ygF3SlQFWjPo" type="github">
  <diagram name="第 1 页" id="S730ZmZc1Ew29WSFfZZg">
    <mxGraphModel>
      <root>
        <mxCell id="0" />
        <mxCell id="1" parent="0" />
      </root>
    </mxGraphModel>
  </diagram>
</mxfile>
